<?xml version="1.0" encoding="utf-8"?>
<!-- Generator: Adobe Illustrator 18.1.1, SVG Export Plug-In . SVG Version: 6.00 Build 0)  -->
<svg version="1.1" id="Layer_1" xmlns="http://www.w3.org/2000/svg" xmlns:xlink="http://www.w3.org/1999/xlink" x="0px" y="0px"
	 viewBox="0 0 100 100" enable-background="new 0 0 100 100" xml:space="preserve">
<g>
	<path fill="#BE8519" d="M47.4,65.8c0,0-0.7,10.2,6.7,14.1c1.6,0.9,1,1.6,3.9,2c-0.5-1.2-0.5-1.2-0.5-1.2s3.1,1.3,7,0.7
		c-2.3-0.8-2.3-0.8-2.3-0.8s2.1,0.7,5.5-0.2c-1.5-0.5-1.5-0.5-1.5-0.5s5.4,0.3,7.9-2.5c-1-2.9-2.2-3.7-2.2-3.7s2-0.2,4-1.4
		c-1.5-0.5,2.5-0.2,6.1-3.6c-2.9-2.1-4.9-1.4-4.9-1.4s5.1-2.2,7.3-6.3c-2.3-0.8-3.8,0.4-3.8,0.4s2.9-7.1,3.1-11.2
		c-0.8,0.7-2.1,1.6-2.1,1.6s2.4-2.7,2.8-5.5c-1.3,1.6-1.5,0.8-1.5,0.8s2.1-1.7,2-5.8c-5,1.2-10.1,6.4-11.8,6.4c-1.8,0-3.8-0.5,1-2.7
		c-1.5-0.2-2.4,0.2-2.4,0.2s1.4,0,4.1-3.9c1.7-2.2,1.3-5.9,1.3-5.9s-2.2,1.9-4.1,1.6c0.6-1-0.5-1.3-0.5-1.3s-0.2-2.2-1-5.7
		c-0.8,2.9-1.3,1.4-1.3,1.4s0-5-2-8.9c0.2,2.4-0.7,2.2-0.7,2.2s0.4-2.8-1.9-6.1c0.1,2.3-0.7,2.1-0.7,2.1s-0.2-6-4-10.4
		c-5,7.5-5.6,9.7-5.6,9.7l-1.4-1.6c0,0-1.3,1.3-1.3,2.7c-1.9-1.2-2.4-1.2-2.4-1.2s-2.3,1.9-2.7,3.8c-0.5-1.8-0.2-2.2-0.2-2.2
		s-2.8,1.5-6,7.2c0.3-2.3,0.4-3.2,0.4-3.2s-8,4.9-3,14.2c-2.2-0.7-3.7-2.8-6.3-5.7c-1.3-1.5-2.7-0.5-2.7-0.5s0.5,0,1.1,1.4
		c-3.8-2.2-5.9-2.4-5.9-2.4s1,0.4,1,1.5c-4.9-1.8-9.4-1.3-9.4-1.3s3.2,3.6,2.7,5.9c-0.6,2.6-0.6,3.6,0.8,5.2
		c-1.5-1.1-2.1-1.4-2.1-1.4s-0.6,3.9,2.1,8.6c-3.5-0.9-5.3-1.4,1,6.6c-1.2-0.3-3.2-1.3-3.2-1.3s0.7,3.2,7.1,4.5
		c2.2,0.6,0.6,1.5-2,1.7c-2.6,0.3-3.7,0.1-3.7,0.1s0.3,3.9,5,4.8c-0.7,0.3-2.6-0.1-2.6-0.1s4.9,3.4,9.4,3.2
		c-0.5,1.7-2.9,0.7-2.9,0.7s5.1,3.4,7.4,2.1c0.2,1.1-0.2,1.5-0.2,1.5s2.9-0.3,4.1-2.4c-0.2,2.3,1,0.6,2.6-3.8
		c1.6-4.5,3.7-3.2,3.7-3.2s-1.6,3.9-1.8,6.9c-0.2,3-0.2,3-0.2,3l1.8,0.6C45,75.6,46.1,68,47.4,65.8z"/>
	<g>
		<path fill="#FFFFFF" d="M39.1,60.4c-2-1.2-4.3-3.7-5.5-5.8c-1.2-2.2-1.8-4.9-2.3-7.4c-0.2-1.3-0.3-2.5-1.1-3.6
			c-0.7-1-1.7-1.9-2.6-2.8c-0.9-0.9-2.1-1.5-3.1-2.4c-0.9-0.9-1.7-1.8-2.8-2.6c2.4,1.5,5.1,3.2,7,5.4c0.8,0.9,1.8,1.9,2.3,3
			c0.6,1.3,1,3,1.3,4.4c0.4,1.5,0.4,3,1,4.4c0.6,1.3,1.6,2.5,2.6,3.6c1.6,1.8,3.2,3.7,5.6,4.6c1.1,0.4,2.3,0.4,3.4,0.8
			c0.3,0.1,2.2,1,1.2,1c-0.5,0-1.2-0.6-1.7-0.8c-0.6-0.3-1.4-0.3-2-0.5C41.3,61.5,40.3,61.1,39.1,60.4z"/>
	</g>
	<g>
		<path fill="#FFFFFF" d="M47.1,64.1c0.7-0.3,1.2-2.9,1.4-3.6c0.5-1.4,1-2.9,1.8-4.2c1.5-2.5,3.7-4.4,5.3-6.8c1.8-2.7,2.7-6,2.7-9.3
			c0-1.9,0.3-3.9,0.3-5.8c0-2.5-0.1-4.9,0.1-7.4c0.3-3.5,0.6-7.1,1.9-10.4c0.1-0.3,0.2-0.5,0.3-0.8c-1.2,3.1-2.5,5.7-2.5,9.1
			c-0.1,3.3-0.6,6.5-0.7,9.7c-0.2,3.4,0.2,6.7-0.6,10c-0.7,3.3-3.1,6.1-5.1,8.7c-1,1.3-2.1,2.5-2.7,4c-0.7,1.6-1.1,3.3-1.9,4.9
			c-0.2,0.3-0.3,0.6-0.5,0.9c-0.1,0-0.2,0-0.3-0.1c-0.1,0-0.1,0.4,0,0.5c0.1,0.1,0.6,0,0.7-0.1c0.7,0,1.1-0.3,1.8-0.5
			c1.6-0.2,3.4,0.7,4.6,1.6c1.5,1,3.2,1.5,5,2c2.4,0.8,3.8-0.2,6-1.4c3.6-2,6.6-4.3,9.2-7.6c2.2-2.9,3.7-6,5.4-9.2
			c0.2-0.3,0.3-0.7,0.4-1.1c-1.9,2.9-3.5,5.8-5.8,8.6c-1.3,1.8-2,3.6-4,4.7c-2,1.1-3.6,2.3-5.3,3.8c-1.8,1.4-3.1,2.3-5.3,1.8
			c-1.6-0.4-3-1.3-4.5-1.8c-1.6-0.7-3-1.4-4.6-1.8c-0.8-0.2-1.5-0.4-2.2,0c-0.5,0.3-0.9,1-1.1,1"/>
	</g>
	<path fill="#FFFFFF" d="M64.1,74.6c0,0-4.2-2.7-6.1-5.1c-1.8-2.4-3.3-4.1-3.3-4.1l-1.1-0.5c0,0,3.5,4.6,5.7,6.6
		C61.6,73.3,64.1,74.6,64.1,74.6z"/>
	<path fill="#FFFFFF" d="M55.6,67.2c0,0,1.4,1.8,1.2,4c0.3-1.9,0-2.5,0-2.5"/>
	<path fill="#FFFFFF" d="M63.9,69.4c0,0-3.5-1.5-5.3-2.6c1.3,0,1.3,0,1.3,0S62.7,69.1,63.9,69.4z"/>
	<path fill="#FFFFFF" d="M63.7,65.7c0,0,4.4,2.8,7.5,2.4c3-0.5,3-2.4,4.5-3.4c-2.9,2.4-3.5,4-7,2.8c-3.5-1.3-4.5-2.3-4.5-2.3"/>
	<path fill="#FFFFFF" d="M69.4,68c0,0,2.3,0.7,3.1,1.9c-1.1-1.6-0.5-2.1-0.5-2.1"/>
	<path fill="#FFFFFF" d="M70.4,61c0,0,2.9-0.2,6.5-2.9c-3.8,1.9-5.2,1.8-5.2,1.8"/>
	<path fill="#FFFFFF" d="M76.2,54l3.8-3.3c0,0-3,2.3-3.6,2.4"/>
	<path fill="#FFFFFF" d="M75.7,53.8c0,0-0.7-1.1,0.1-2.7c-1,2.1-0.5,3.3-0.5,3.3"/>
	<path fill="#FFFFFF" d="M72.7,58.4c0,0,0-1.8-0.2-3.5c0,0,0,0,0,0c-0.3-1.7-1.2-2.2-1.2-2.2s0.7,1,0.8,2.8s0.1,3.3-0.7,4.8"/>
	<path fill="#FFFFFF" d="M68.2,62c0,0,1.2-2.1-0.5-5.4c-1.8-3.3-1.9-4.8-1.3-6.1c-1.2,3.5,0.1,4.9,0.7,6.4c0.6,1.6,1.9,3.6,0,6.1"/>
	<path fill="#FFFFFF" d="M67.3,57.3c0,0-0.6-1.3-2.2-2c-1.6-0.7-2.3-0.5-2.3-0.5s3.4-0.2,4.5,1.6"/>
	<path fill="#FFFFFF" d="M62.7,66.1c0,0,1.5-1.7,1.1-4c-0.7,2.8-2.6,4.6-2.6,4.6"/>
	<path fill="#FFFFFF" d="M48.3,61c0,0,1.2-5.1,7.6-4.7c-3.3-0.4-5.2,0.2-7.2,2.8"/>
	<path fill="#FFFFFF" d="M51.8,56.8c0.1,0,1.4-0.3,3.2,0.8c-2.9-0.8-4.1-0.2-4.1-0.2"/>
	<path fill="#FFFFFF" d="M47.3,62.5c0,0,0.8-1,0.3-3.2c-0.5-2.2-5.5-8.4-5.4-13c0.7,3.4,0.9,4.2,3.3,8.3c2.4,4,2.9,5.6,2.4,7.4"/>
	<path fill="#FFFFFF" d="M51.6,54.1c0,0,1.4-6.5-2.9-12.1c-4.3-5.6-3.1-10.5-2.9-12.9c0.1,5.7-0.6,6.8,3.3,12.5
		c3.9,5.7,3,12.1,3,12.1"/>
	<path fill="#FFFFFF" d="M57.2,45.6c0,0,4.9-0.5,10.5-6.7c-6.5,5.1-10.2,6-10.2,6"/>
	<path fill="#FFFFFF" d="M46.2,56.2c0,0-1.1-1.9,0.5-4c0,0-1.4,2.6,0,5.1"/>
	<path fill="#FFFFFF" d="M44.8,53.8c0,0-0.2-0.5-2.4-1.2c1.6,0.5,2.2,0.7,2.2,0.7"/>
	<path fill="#FFFFFF" d="M42.8,49.6c0,0,0-1.9,1.4-2.7c-1.5,1.1-1.5,1.5-1.5,1.5"/>
	<path fill="#FFFFFF" d="M51.8,49.6c0,0-0.5-2.8-3.2-3.5c1.8,0.4,3.2,1.9,3.2,1.9"/>
	<path fill="#FFFFFF" d="M50.4,44.4c-2.5-4.7-6.7-4.3-6.7-4.3s-0.2-0.6,2.5,0.1c2.7,0.7,4.1,3.8,4.1,3.8"/>
	<path fill="#FFFFFF" d="M50,43.5c0,0-0.7-2.2-0.4-4c0.3-1.8,0.8-2.4,0.8-2.4s-1.2,1.2-1.1,5.1"/>
	<path fill="#FFFFFF" d="M46.5,37.9c0,0-0.6-1.7,0.6-3.3c-1,1.4-1.1,2.1-1.1,2.1"/>
	<path fill="#FFFFFF" d="M45.5,33.7c0,0-0.7-0.7-1-1.8c0.6,2.2,1,2.5,1,2.5"/>
	<path fill="#FFFFFF" d="M55.2,49.1c0,0,1.1-2.5-0.1-5.2c-1.2-2.7-1.5-2.6-1.2-3.8c0.3,2.3,1.3,2.8,1.7,3.9c0.4,1.1,0.7,3.7,0.2,4.7
		"/>
	<path fill="#FFFFFF" d="M59.6,44.3c0,0,1,0,1.7-2.5c0.1,1.6-1.2,2.7-1.2,2.7l3.7-2.5c0,0,0.7-0.4,0.5-2.2c0.5,1.2-0.1,2.2-0.1,2.2"
		/>
	<path fill="#FFFFFF" d="M60.5,44.2c0,0,0.9,0.8,4.1,0.2c-2.6,1.4-4.5,0.1-4.5,0.1"/>
	<path fill="#FFFFFF" d="M58,36.5c0,0-1.2-4.6-3.9-6.8c-2.7-2.2-2.7-4.2-2.7-4.2s0.5,2.9,2.6,4.9c2.1,2,4,7,4,8.7"/>
	<path fill="#FFFFFF" d="M55.5,31.5c0,0,0.4-2.6-0.7-3.8c0.5,1.7-0.1,2.8-0.1,2.8"/>
	<path fill="#FFFFFF" d="M58.2,34.8c0,0,3-0.5,4.5-3.5c-1.9,2.2-4.3,2.3-4.3,2.3"/>
	<path fill="#FFFFFF" d="M58.7,27c0,0,1.2-0.1,1.9-2.3c-1.1,1.3-2.1,1.3-2.1,1.3"/>
	<path fill="#FFFFFF" d="M58.7,23.8c0,0-1-1.2-0.9-2.5c0.1,1.6,1.1,2.1,1.1,2.1"/>
	<path fill="#FFFFFF" d="M44,61.9c0,0,0.4-1.9-2.3-2.8c1.9,1.1,2.1,2.2,1.9,2.7"/>
	<path fill="#FFFFFF" d="M39.4,60.5c0,0-3.2,7.1-9.4,5.8c6.9-0.7,9-6.3,9-6.3"/>
	<path fill="#FFFFFF" d="M34.1,55.1c0,0-6.1,1.2-9.1-1.3c-1.2-1-3-1-3-1s1.3-0.7,3.6,0.9c2.2,1.6,4.3,1.9,8.5,1"/>
	<path fill="#FFFFFF" d="M31.1,44.8c0,0-2.1-3.4-6.8-3.5c3.9-0.1,6.1,2,6.1,2"/>
	<path fill="#FFFFFF" d="M32.7,52.1c0,0-2.4-0.6-3.7-2.8c1.9,2,3.8,2,3.8,2"/>
	<path fill="#FFFFFF" d="M25.2,38.7c0,0-3,0-3.7-0.7c1.8,0.3,3.1-0.1,3.1-0.1"/>
	<path fill="#FFFFFF" d="M36.4,63.9c0,0-0.8-1.6-2-1.4c1.7,1.1,0.9,2.3,0.9,2.3"/>
	<path fill="#FFFFFF" d="M33.9,65.9c0,0-1,2-1.9,2c0.9-1,1-1.8,1-1.8"/>
	<path fill="#FFFFFF" d="M27.7,55c0,0-2.7,1.2-4.2,0.1c2.5,0.3,3.8-0.3,3.8-0.3"/>
	<path fill="#FFFFFF" d="M36.7,57.7c0,0-1.3-4.1,0.7-9.2c0.4-0.9,0.6-1.7,0.7-2.3c0.5-3-1.1-3.4-1.1-3.4s2,0.7,0.1,5.6
		c-1.9,4.9-1.2,8.7-0.9,9.2"/>
	<path fill="#FFFFFF" d="M36.2,54.3c0,0,1.3-0.8,1.4-2.2c-0.6,1-0.8,1.6-1.3,1.4"/>
	<path fill="#FFFFFF" d="M36.1,52.8c0,0-1-2.2-0.7-4c0.3,2.2,0.9,3,0.9,3"/>
	<path fill="#FFFFFF" d="M38,45.7c0,0,1.6-0.5,1.3-2.1c-0.1,1.3-0.8,1.8-1.2,1.7"/>
	<path fill="#FFFFFF" d="M31.6,46.1c0,0,1.2-6.9-1.8-9.6c1.8,2.4,2.1,5.5,1.5,8.6"/>
	<path fill="#FFFFFF" d="M31.6,40.5c0,0,0.9-0.4,0.4-1.9c-0.1,1.2-0.5,1.4-0.5,1.4"/>
	<path fill="#FFFFFF" d="M31,38.6c0,0-0.4,0-0.6-0.4c-0.2-0.4-0.2-0.4-0.2-0.4c0.5,1.2,0.9,1.3,0.9,1.3"/>
	<path fill="#FFFFFF" d="M55.2,49.3c0,0-2.8,3.4-4.4,5.3c-1.7,1.9-2.5,3.8-3.6,8.4c-1.8-0.8-1.4-1-4.9-1.5c-1.4-0.4-4.2-2.3-4.2-2.3
		s0.4,2,6,3.1c1.2,0.2,2,1.2,2.5,1.8c0.5,0.6,0.6-0.3,1.3-0.4c0.7-0.1,0-0.3,0.4-1.5C48.6,61,47.5,58.1,55.2,49.3z"/>
	<polyline fill="#FFFFFF" points="55.2,49.3 50.5,54.9 50.3,55.8 	"/>
</g>
</svg>
